<?xml version="1.0" encoding="UTF-8"?>
<svg xmlns="http://www.w3.org/2000/svg" viewBox="0 0 733.25 555.65" style="background: transparent;">
  <defs>
    <style>
      .cls-1, .cls-2, .cls-3, .cls-4, .cls-5, .cls-6, .cls-7, .cls-8, .cls-9, .cls-10 {
        stroke-width: 6px;
      }

      .cls-1, .cls-2, .cls-4, .cls-5, .cls-8, .cls-9 {
        stroke: #000;
      }

      .cls-1, .cls-3 {
        fill: none;
        stroke-linecap: round;
      }

      .cls-1, .cls-3, .cls-4 {
        stroke-linejoin: round;
      }

      .cls-2, .cls-5, .cls-6, .cls-7, .cls-8, .cls-9, .cls-10 {
        stroke-miterlimit: 10;
      }

      .cls-2, .cls-7 {
        fill: #e0aa79;
      }

      .cls-3, .cls-6 {
        stroke: #fff;
      }

      .cls-5, .cls-10 {
        fill: #a0632b;
      }

      .cls-6 {
        fill: #fff;
      }

      .cls-7 {
        stroke: #e0aa79;
      }

      .cls-8 {
        fill: #f2ebc2;
      }

      .cls-10 {
        stroke: #a0632b;
      }
    </style>
  </defs>
  <g id="cat">
    <path class="cls-9" d="M656.42,506.85c75.83-24.25,28.55-113.08,43.25-128,30.74-31.21,76.54,148.28-82.86,153.31"/>
    <path class="cls-4" d="M512.56,261.55c108.46,34.2,362.19,357.47-139.55,278.81l-3.57-.58s8.5-26.41-2.18-40.63c-2.6-3.47-10.97,2.15-16.6-1.67-30.43-53.41-27.31-161.57,46.69-219.26"/>
    <path class="cls-3" d="M433.34,384.89c16.9,15.75,30.98,16.21,29.48-17.9"/>
    <path class="cls-3" d="M492.63,384.97c-16.9,15.75-30.98,16.21-29.48-17.9"/>
    <path class="cls-7" d="M451.71,369.48c0,2.51,6.01,8.8,12.13,8.8s10.03-6.3,10.03-8.8-4.96-2.49-11.08-2.49-11.08-.01-11.08,2.49Z"/>
    <path class="cls-8" d="M517.57,373.63c-12.08,0-21.87-7.33-21.87-16.38s43.74-9.04,43.74,0-9.79,16.38-21.87,16.38Z"/>
    <path class="cls-9" d="M520.43,357.65c-1.08,4.98-1.09,7.11-2.43,7.11s-1.52-3.29-2.43-7.11c-2.03-8.55-2.88-7.05,2.43-7.11s4.02-.28,2.43,7.11Z"/>
    <path class="cls-8" d="M411.54,374.7c-12.08,0-21.87-7.33-21.87-16.38s43.74-9.04,43.74,0-9.79,16.38-21.87,16.38Z"/>
    <path class="cls-9" d="M414.39,358.72c-1.08,4.98-1.09,7.11-2.43,7.11s-1.52-3.29-2.43-7.11c-2.03-8.55-2.88-7.05,2.43-7.11s4.02-.28,2.43,7.11Z"/>
  </g>
  <g id="dog">
    <path class="cls-5" d="M131.35,532.13c-24.26.81-49.36-1.79-71.69-11.87-16.17-7.3-30.3-18.67-40.14-33.5-8.49-12.8-13.58-27.64-15.55-42.82-1.72-13.3-1.2-27.05,1.97-40.11,2.14-8.83,5.55-19.13,12.62-25.33,4.9-4.3,11.91-4.39,15.87,1.37,4.76,6.92,1.43,19.33.33,26.85-2.02,13.7-4.3,27.46-3.8,41.36.52,14.48,4.39,29,14.33,39.94,13.65,15.04,34.82,20.48,54.3,22.58,7.26.78,14.57,1.11,21.87,1.13"/>
    <path class="cls-5" d="M409.18,185c-5.14-14.39,15.53-43.13,45.98-33.74,26.39,8.14,43.97,39.95,38.99,51.66-7.81,18.36-77.57,2.81-84.97-17.93Z"/>
    <path class="cls-2" d="M370.46,539.23c-14.12.98-58.27,15.24-154.11,10.66-5.91-.28-12.02-.64-18.32-1.07-15.52-1.07-32.25-2.61-50.29-4.74-27.35-3.24-47.11-27.64-44.82-55.08,1.44-17.26,3.93-34.18,7.36-50.68,1.09-5.26,2.28-10.48,3.57-15.66,1.3-5.24,2.69-10.42,4.17-15.56,67.81-235.31,324.45-367.29,395.86-136.92,14.08,45.42-83.91,100.6-114.48,5.59-74,57.69-79.24,157.42-50.78,218.22.61,1.31,1.39,2.21,2.28,2.81,5.63,3.82,12.65-.12,16.6,1.67,3.78,1.71,8.2,12.6,2.97,40.77Z"/>
    <path class="cls-1" d="M204.68,382.33c170.86-51.55,79.84,108.75,81.97,112.4.33.57.86,1.65,2.1,2.53,4.45,3.14,10.69-1.56,15.31,1.5,1.17.77,2.06,1.56,2.38,2.8,5.16,19.78-6.1,42.02-6.1,45.26"/>
    <g>
      <path class="cls-9" d="M340.19,234.88c-2.04,4.62-10.35,11.76-14.8,16.87-9.81,11.25-15.65,28.07-8.86,35.13,13.71,14.28,44.32-21.85,48.69-25.21"/>
      <path class="cls-1" d="M338.4,216.99c-.34,3.03-1.66,17.49,8.44,30.8,9.8,12.91,23.49,15.72,26.61,16.28"/>
    </g>
    <path class="cls-9" d="M459.53,286.11c0,3.91,9.39,13.75,18.96,13.75s15.68-9.84,15.68-13.75-7.75-3.89-17.32-3.89-17.32-.02-17.32,3.89Z"/>
    <circle class="cls-9" cx="400.33" cy="197.7" r="17.46"/>
    <circle class="cls-9" cx="456.85" cy="212.4" r="13.97"/>
    <path class="cls-5" d="M377.71,140.62c-2.55-22.24-90.37-17.26-101.05,13.34-8,22.92,8.49,54.05,29.27,55.19,14.7.8,27.97-18.56,49.4-49.82,9.71-14.16,22.99-13.35,22.37-18.71Z"/>
    <circle class="cls-6" cx="397.36" cy="190.58" r="2.97"/>
    <circle class="cls-6" cx="453.38" cy="206.89" r="1.69"/>
    <ellipse class="cls-10" cx="208.9" cy="319.21" rx="47.74" ry="33.89" transform="translate(-171.81 294.9) rotate(-53.14)"/>
    <path class="cls-10" d="M119.87,435.71c-5.25,5.05-9.09,30.12-10.14,39.09-1.36,11.64-2.51,20.68-.56,29.85s10.63,20.43,16.05,24.5,10.14,7.6,27.31,9.43c32.24,3.44,48.36.79,59.69-4.88,11.26-5.63,17.81-30.66-18.21-68.51-18.4-19.33-56.12-46.8-74.14-29.47Z"/>
  </g>
</svg>